<svg width="100" height="100" viewBox="0 0 100 100" fill="none" xmlns="http://www.w3.org/2000/svg">
  <rect width="100" height="100" rx="20" fill="#E6F7F1" />
  
  <!-- Document base -->
  <rect x="25" y="25" width="50" height="60" rx="3" fill="white" stroke="#4D61FC" stroke-width="2" />
  
  <!-- Document content lines -->
  <rect x="30" y="30" width="25" height="5" rx="2.5" fill="#6C47ED" />
  <rect x="30" y="40" width="40" height="3" rx="1.5" fill="#3CCFCF" />
  <rect x="30" y="46" width="40" height="3" rx="1.5" fill="#3CCFCF" />
  <rect x="30" y="52" width="30" height="3" rx="1.5" fill="#3CCFCF" />
  
  <rect x="30" y="62" width="15" height="5" rx="2.5" fill="#4D61FC" />
  <rect x="30" y="72" width="40" height="3" rx="1.5" fill="#3CCFCF" />
  <rect x="30" y="78" width="30" height="3" rx="1.5" fill="#3CCFCF" />
  
  <!-- Magnifying glass with search ranking -->
  <circle cx="75" cy="35" r="10" stroke="#00BA88" stroke-width="2" />
  <path d="M82 42L88 48" stroke="#00BA88" stroke-width="2" stroke-linecap="round" />
  
  <!-- Ranking bars -->
  <rect x="65" y="58" width="5" height="15" rx="2.5" fill="#F7B955" />
  <rect x="75" y="58" width="5" height="12" rx="2.5" fill="#F56565" />
  <rect x="85" y="58" width="5" height="20" rx="2.5" fill="#00BA88" />
  
  <!-- Up arrows indicating optimization -->
  <path d="M67.5 52L67.5 58" stroke="#00BA88" stroke-width="2" stroke-linecap="round" />
  <path d="M63.5 56L67.5 52L71.5 56" stroke="#00BA88" stroke-width="2" stroke-linecap="round" stroke-linejoin="round" />
  
  <path d="M87.5 52L87.5 58" stroke="#00BA88" stroke-width="2" stroke-linecap="round" />
  <path d="M83.5 56L87.5 52L91.5 56" stroke="#00BA88" stroke-width="2" stroke-linecap="round" stroke-linejoin="round" />
</svg> 