<svg width="100" height="100" viewBox="0 0 100 100" fill="none" xmlns="http://www.w3.org/2000/svg">
  <rect width="100" height="100" rx="20" fill="#E6F7FB" />
  <rect x="30" y="25" width="40" height="50" rx="3" fill="white" stroke="#4D61FC" stroke-width="2" />
  <rect x="35" y="30" width="30" height="4" rx="2" fill="#6C47ED" />
  <rect x="35" y="38" width="20" height="4" rx="2" fill="#3CCFCF" />
  <rect x="35" y="46" width="25" height="4" rx="2" fill="#4D61FC" />
  <rect x="35" y="54" width="15" height="4" rx="2" fill="#00BA88" />
  <rect x="35" y="62" width="28" height="4" rx="2" fill="#F7B955" />
  
  <circle cx="20" cy="40" r="5" fill="#4D61FC" />
  <path d="M18 40L20 42L23 39" stroke="white" stroke-width="1.5" stroke-linecap="round" stroke-linejoin="round" />
  
  <circle cx="80" cy="40" r="5" fill="#6C47ED" />
  <path d="M78 40L80 42L83 39" stroke="white" stroke-width="1.5" stroke-linecap="round" stroke-linejoin="round" />
  
  <circle cx="20" cy="60" r="5" fill="#3CCFCF" />
  <path d="M18 60L20 62L23 59" stroke="white" stroke-width="1.5" stroke-linecap="round" stroke-linejoin="round" />
  
  <circle cx="80" cy="60" r="5" fill="#F56565" />
  <path d="M78 60L80 62L83 59" stroke="white" stroke-width="1.5" stroke-linecap="round" stroke-linejoin="round" />
  
  <circle cx="50" cy="80" r="5" fill="#00BA88" />
  <path d="M48 80L50 82L53 79" stroke="white" stroke-width="1.5" stroke-linecap="round" stroke-linejoin="round" />
</svg> 